inDegrees=no
nColumns=24
nRows=18
DataType=double
version=3
OpenSimVersion=4.5
endheader
time	pelvis_tilt	pelvis_list	pelvis_rotation	pelvis_tz	pelvis_ty	pelvis_tx	hip_flexion_r	hip_adduction_r	hip_rotation_r	knee_angle_r	ankle_angle_r	subtalar_angle_r	mtp_angle_r	hip_flexion_l	hip_adduction_l	hip_rotation_l	knee_angle_l	ankle_angle_l	subtalar_angle_l	mtp_angle_l	lumbar_extension	lumbar_bending	lumbar_rotation
0.7000000000000001	-0.03075929612946578	0.09712897907873139	-0.04058204579046329	-0.007197460000000044	0.83487228	0.91933774	-0.03184369032946677	-0.1504711298679773	-0.1243205220442738	-0.9939248156488936	-0.2607016181111458	-0.1019181512080951	0	0.3806198495828232	0.1818008378369584	-0.10634605780359	-0.405319982333035	0.148731248661243	-0.0577162398016583	0	-0.004017661544292973	-0.08389573456981153	0.04755363890943988
0.7099999999999999	-0.0262653558080609	0.09709074488213941	-0.03810373229976539	-0.007567660000000032	0.83805419	0.93143404	0.009600982213260523	-0.1509283478380027	-0.1173696633006718	-1.055704830688078	-0.2279245096406834	-0.1400194083783819	0	0.3514631346520392	0.1841119766525104	-0.1024994493470338	-0.3923564503536787	0.159569647148486	-0.05262888794996658	0	-0.01059593158796942	-0.08484524953343252	0.03495076037045212
0.7199999999999999	-0.0236289916476736	0.09473383669002566	-0.03556918979426418	-0.007769480000000051	0.8409999	0.94316093	0.05457208919351678	-0.1470668890729731	-0.1093958187368556	-1.111952453765867	-0.1987795861543258	-0.1788792657521981	0	0.3229908130628457	0.1840017463693435	-0.09479042673221544	-0.3760918157170694	0.1676652401213348	-0.04608292517247502	0	-0.01541393096499106	-0.08337376907332725	0.02321305916950339
0.7299999999999999	-0.02163513512965	0.09142757483546769	-0.03287453631025004	-0.007782100000000014	0.84391835	0.95504482	0.09886676083543977	-0.1414944318568687	-0.1026003248399431	-1.15961639189898	-0.1793664998946994	-0.2175352449329035	0	0.2930192822695889	0.1829696713979837	-0.08657260747918491	-0.3561147957737654	0.1747438211869331	-0.04283946375909869	0	-0.01890545759574966	-0.08110872859211052	0.01216801631681814
0.7399999999999999	-0.02081710420683993	0.08481943235976377	-0.03036034334168553	-0.007759760000000004	0.84666218	0.96645292	0.1445099625201796	-0.1312226885452061	-0.09680116192037524	-1.199053302247395	-0.1635746917076163	-0.2528435674165532	0	0.2650440473810572	0.1778553526385523	-0.08035428576285936	-0.3358000448463565	0.1727787174575337	-0.04315402514831734	0	-0.02202657579188431	-0.07501665875788649	0.00254137584369112
0.7499999999999999	-0.02023879943834038	0.07682329396854079	-0.02643746781759313	-0.007937460000000007	0.84941805	0.9777770400000001	0.1881430692035292	-0.1191163767732959	-0.0925415738307451	-1.228342053081422	-0.1495972778944899	-0.2748302809355195	0	0.2356690730931918	0.1716704260521345	-0.07171088839208226	-0.3115922326516851	0.176950085087595	-0.04045966770503041	0	-0.02482697507719928	-0.06682629946810928	-0.006846714598069637
0.7599999999999999	-0.02058542969306565	0.06845820985637877	-0.02208660583844364	-0.008054690000000031	0.85200902	0.9890273599999999	0.2305572527725847	-0.1076198689048655	-0.0919218191070679	-1.248554894757405	-0.1358462748241834	-0.2944549581727541	0	0.2062822260285568	0.1641767843973951	-0.06837125148293943	-0.2845603738801963	0.1750071065480574	-0.03654525146170502	0	-0.02638846687921887	-0.05852086835182007	-0.01493157205068936
0.7699999999999999	-0.02065525164110221	0.05991900105599354	-0.01778771234853836	-0.008352150000000003	0.85433055	0.99992145	0.273026521376294	-0.09708477094250731	-0.09214183339271212	-1.262932854303481	-0.1192934632897239	-0.3048120999211181	0	0.1777270688441357	0.1565185388210378	-0.06595381600728847	-0.2584424918526324	0.1761725192637488	-0.03077410945421212	0	-0.0293283013911403	-0.04922116051071568	-0.02515138134512964
0.7799999999999999	-0.02192923177317404	0.05091477501756492	-0.01334995865220093	-0.00846714000000004	0.85658598	1.01147568	0.3116083156862093	-0.08558461498687446	-0.09372906635773769	-1.266682607982126	-0.09566449076320684	-0.314040244026903	0	0.1481020517063125	0.1475969738411376	-0.06282390100265793	-0.2292073748119866	0.1775931169184402	-0.02046116240956841	0	-0.02823413441177865	-0.0399967723534811	-0.03184185494122538
0.7899999999999999	-0.02240597193088436	0.04319575056629836	-0.007539390846497305	-0.008919040000000045	0.85848419	1.02225157	0.349265828828296	-0.07799560243315368	-0.0984882383651233	-1.263432380450839	-0.07650048707338376	-0.3171633845360419	0	0.1224415819039198	0.1405385783810032	-0.06454650973298272	-0.2067501681741711	0.1765384277159624	-0.01142865417950177	0	-0.0304011898398604	-0.0320010043598648	-0.03948247932438859
0.7999999999999999	-0.02292170621569903	0.03604373547404782	-0.002911274781522213	-0.00926606000000002	0.86017611	1.03348716	0.3842131599758338	-0.07056602692833304	-0.1018058558513571	-1.252467641593301	-0.05847449861878601	-0.3159393971743901	0	0.09620169054060008	0.1338969317669955	-0.0642852280098397	-0.1844275653425268	0.1788254982665965	-0.004237773044776537	0	-0.03082692992416155	-0.02470123928895758	-0.04571076320555159
0.8099999999999999	-0.02296217132834036	0.02921548778561476	0.002798142320988311	-0.009552910000000026	0.86159008	1.04456067	0.4165319736081223	-0.06376681966890392	-0.1065996054492186	-1.234025394730097	-0.03443829295575718	-0.3134961604964069	0	0.0716197762710087	0.1274889702535969	-0.06103159307225351	-0.1656702851530739	0.1805372692003981	0.003557974456974679	0	-0.03228521552058881	-0.018012125653415	-0.0514459084953538
0.82	-0.02141589185034333	0.02307040373674321	0.009022607291710569	-0.01021464	0.86284435	1.0556812	0.4437699133527708	-0.0586872395938384	-0.1124831560853179	-1.206543046232849	-0.0148211195871086	-0.3112678059634025	0	0.04627011260741604	0.1223850239859102	-0.05756902808603666	-0.1482046538534507	0.1784118198036901	0.006050560668623849	0	-0.03556534438168736	-0.0109255158987246	-0.05803909778800922
0.83	-0.02127474088469757	0.02003703154210737	0.01484645978755085	-0.01067063000000001	0.863487	1.06686461	0.4709444847301354	-0.05578822588966018	-0.1156472633117255	-1.173810854159752	-0.004343896917279426	-0.310085686781578	0	0.02192131254123558	0.1201168216662205	-0.05333777751120775	-0.1300102653861121	0.1860788930808709	0.007382137281218496	0	-0.03682930292480247	-0.008009541084875485	-0.06606751460874502
0.84	-0.01679028997281899	0.01237539008831666	0.02561491195951308	-0.01135509000000001	0.8643817300000001	1.07801585	0.4875446939965584	-0.04938585536398747	-0.1252796904239875	-1.130153272549769	0.01176042556234262	-0.3088763519825955	0	-0.006805806872929693	0.112112145512102	-0.04078204066438221	-0.1130184044100745	0.1762939618910964	0.007096713291197277	0	-0.04328455553054719	-0.0002108616045138445	-0.07466154202550387
0.85	-0.01331665641385036	0.009863872935285116	0.03364872627525537	-0.01187441	0.86486944	1.08953164	0.5039977542046798	-0.04707959666355686	-0.1302723956883375	-1.082432430574389	0.02550687122890632	-0.3052211862482296	0	-0.0370262874164337	0.1094207340100595	-0.03332862867436831	-0.0908632296173106	0.1764672476040124	0.004682835145627744	0	-0.04736991857105794	0.002029696096087616	-0.08376558990534638
0.86	-0.009877031437972724	0.009166422672790817	0.04220391863320909	-0.01255578000000002	0.86485123	1.10104922	0.5178054028085245	-0.04795064057681063	-0.1370867948171747	-1.029707639574553	0.03950564787207711	-0.3097788832063516	0	-0.06730061049469713	0.1081423747552862	-0.02759261805032296	-0.06880933628103993	0.1752220171419029	0.007039359153982867	0	-0.05207768242892486	0.002642251336600337	-0.09333253069327721
0.87	-0.01003353315048481	0.01272204214357908	0.04992789344334257	-0.01329234000000001	0.8640154	1.11240284	0.5344432277600524	-0.05332125814437054	-0.1424105455819296	-0.973890840725175	0.03999325900569684	-0.3112244785137875	0	-0.09270736754331393	0.1117458103268864	-0.02786347883853262	-0.04835797389522147	0.181029630771176	0.009335649929989486	0	-0.05304754583722898	-0.001121030214543714	-0.1039631339449692
